<?xml version="1.0" encoding="UTF-8"?>
<svg width="148px" height="87px" viewBox="0 0 148 87" version="1.1" xmlns="http://www.w3.org/2000/svg" xmlns:xlink="http://www.w3.org/1999/xlink">
    <!-- Generator: Sketch 57.1 (83088) - https://sketch.com -->
    <title>Logo</title>
    <desc>Created with Sketch.</desc>
    <defs>
        <polygon id="path-1" points="0 0.172363636 27.9210762 0.172363636 27.9210762 29.9537622 0 29.9537622"></polygon>
        <polygon id="path-3" points="0.0142657343 0.205747368 29.8370785 0.205747368 29.8370785 32 0.0142657343 32"></polygon>
    </defs>
    <g id="Page-1" stroke="none" stroke-width="1" fill="none" fill-rule="evenodd">
        <g id="Tablet" transform="translate(-52.000000, -55.000000)">
            <g id="Logo" transform="translate(52.000000, 55.000000)">
                <path d="M5.08208334,20.9332403 C7.64934207,23.1898392 11.0367323,24.4307783 14.6271647,24.4307783 L14.6860449,24.4307783 C15.5130911,24.3997126 16.3428613,24.6617638 16.9528262,25.0736491 C17.4270105,25.3927598 17.7098867,25.7841459 17.711144,26.1195292 C17.7140775,26.8040322 16.4501447,27.8232845 14.6986171,27.8302585 L14.6816446,27.8302585 C13.6836154,27.8302585 12.7924506,27.4879013 12.2434612,27.0464296 C12.3054844,26.8629937 12.3465539,26.6696253 12.3465539,26.4652677 C12.3465539,25.4631332 11.5383661,24.6480272 10.5453658,24.6480272 C9.55236555,24.6480272 8.74417775,25.4631332 8.74417775,26.4652677 C8.74417775,27.4183732 9.47839866,28.1941715 10.4051849,28.2677149 C11.3485247,29.3093683 12.9454133,30 14.6816446,30 L14.7069987,30 C17.5095685,29.9894334 19.8702228,28.2081194 19.8626794,26.1119212 C19.8591173,25.0383567 19.2344847,24.0021978 18.1488687,23.2697225 C17.1839465,22.6192439 15.9612927,22.2610368 14.7019697,22.2610368 C14.6768252,22.2604028 14.6525188,22.2610368 14.6280029,22.2610368 C11.5570149,22.2610368 8.67104902,21.2100847 6.49583576,19.2975338 C4.34870058,17.4101312 3.16103958,14.9098671 3.1511913,12.2585008 C3.13086612,6.7197109 8.26915526,2.19362201 14.6047441,2.16974154 L14.6531474,2.16974154 C20.3513219,2.16974154 25.1656654,5.90756356 25.9937593,10.7314187 C25.630211,11.0640546 25.3976239,11.5393394 25.3976239,12.0723177 C25.3976239,13.0738181 26.2060212,13.8889241 27.1988119,13.8889241 C28.1918122,13.8889241 29,13.0738181 29,12.0723177 C29,11.4207823 28.6557292,10.8529343 28.143828,10.532133 C27.2195562,4.60660623 21.4645969,0 14.6531474,0 L14.5961531,0 C7.07520813,0.0281071029 0.975349427,5.53097065 1,12.2669541 C1.01180903,15.5512585 2.46139243,18.6293032 5.08208334,20.9332403" id="Fill-1" fill="#153557"></path>
                <g id="Group-5" transform="translate(0.000000, 8.000000)">
                    <mask id="mask-2" fill="white">
                        <use xlink:href="#path-1"></use>
                    </mask>
                    <g id="Clip-4"></g>
                    <path d="M23.8503373,9.17236364 C21.2902179,6.93222378 17.9122478,5.70096503 14.331591,5.70096503 L14.256994,5.70096503 C12.5189045,5.70096503 11.2589045,4.70194406 11.2561881,4.02516084 C11.2540985,3.34586014 12.5145164,2.33341259 14.2603373,2.32627972 L14.2774716,2.32627972 C15.2273821,2.32627972 16.0753224,2.63278322 16.6263373,3.03893706 C16.5538299,3.23446154 16.5084866,3.44362238 16.5084866,3.66411189 C16.5084866,4.65851748 17.3146358,5.46767832 18.3046657,5.46767832 C19.2949045,5.46767832 20.1010537,4.65851748 20.1010537,3.66411189 C20.1010537,2.7487972 19.4160985,1.99900699 18.5357701,1.88362238 C17.5965164,0.853972028 16.0118,0.172363636 14.2774716,0.172363636 L14.2519791,0.172363636 C11.4586657,0.182853147 9.10394925,1.95054545 9.11084478,4.03292308 C9.11836716,6.10837762 11.4726657,7.85488112 14.256994,7.85488112 L14.2808149,7.85488112 C17.3395015,7.82676923 20.2600687,8.88767832 22.4403075,10.7963497 C24.5814716,12.6704056 25.7660388,15.1518042 25.7758597,17.7846713 C25.7854716,20.4166993 24.6192925,22.9071189 22.4921284,24.7973287 C20.3256806,26.7221538 17.435203,27.7887273 14.3541582,27.7998462 L14.3058896,27.7998462 C8.69314328,27.7998462 3.93648657,24.1708951 3.03045672,19.462993 C3.37481493,19.134042 3.59254627,18.6729231 3.59254627,18.1593566 C3.59254627,17.1643217 2.78639701,16.3553706 1.79615821,16.3553706 C0.805919403,16.3553706 -2.08955224e-05,17.1643217 -2.08955224e-05,18.1593566 C-2.08955224e-05,18.8225035 0.362516418,19.3969091 0.895352239,19.7101259 C1.92132239,25.4869091 7.60156119,29.9537622 14.3058896,29.9537622 L14.3625164,29.9537622 C17.9644866,29.9403357 21.3570836,28.6818042 23.9140687,26.4101958 C26.5103373,24.103972 27.9335313,21.0372587 27.9210762,17.7760699 C27.9092925,14.5150909 26.4637403,11.4594965 23.8503373,9.17236364" id="Fill-3" fill="#153557" mask="url(#mask-2)"></path>
                </g>
                <path d="M46.7081112,3.19870725 C47.0346241,3.47979546 47.456307,3.6560603 47.9226615,3.6560603 C48.9451454,3.6560603 49.7777209,2.83597164 49.7777209,1.82834909 C49.7777209,0.819876041 48.9451454,0 47.9226615,0 C47.1787818,0 46.5399992,0.436515952 46.2445622,1.06099104 C37.757385,3.68880431 31.9671223,11.300724 32,20.0554947 C32.0333744,28.7951692 37.9408192,36.4219725 46.4810844,38.9651616 C46.7821323,39.5749657 47.4116354,40 48.1447248,40 C49.1674245,40 50,39.1799113 50,38.1722888 C50,37.1640284 49.1674245,36.3439397 48.1447248,36.3439397 C47.6699539,36.3439397 47.2409337,36.5257328 46.9120469,36.8161764 C39.4132564,34.4881622 34.244512,27.7514007 34.2155941,20.0469898 C34.1866763,12.3270574 39.2531291,5.59752506 46.7081112,3.19870725" id="Fill-6" fill="#153557"></path>
                <path d="M51.9621813,31.6762969 L52.0093467,31.6762969 C56.3546638,31.6599547 60.3567689,29.3022195 62.4539419,25.5235609 C62.641761,25.1852559 62.6375498,24.7724559 62.4425716,24.4390324 C62.2478041,24.1064578 61.8936429,23.9020741 61.5110563,23.9020741 L61.5066345,23.9020741 L52.5989134,23.9353952 L52.5835425,19.5803023 L69.8359486,19.5155702 C69.8365803,19.5936732 69.8378437,19.671564 69.8378437,19.7503038 C69.8662692,27.5909566 64.6062814,34.5020136 57.1312074,36.7302846 C56.8265277,36.495551 56.4506789,36.3505935 56.0386139,36.3505935 C55.0409829,36.3505935 54.2288547,37.1691896 54.2288547,38.1758273 C54.2288547,39.1816161 55.0409829,40 56.0386139,40 C56.8092618,40 57.464102,39.5099459 57.7247747,38.8246343 C66.1210467,36.3300065 72.0320846,28.5606651 72,19.7426632 C71.998395,19.2944198 71.9792341,18.822618 71.9440707,18.3416901 C71.9019588,17.7728963 71.4319899,17.3329301 70.8660059,17.3329301 L70.8626369,17.3329301 L51.4941075,17.4053027 C51.2077465,17.4067884 50.9331769,17.5224573 50.7312503,17.7274777 C50.5293237,17.9324982 50.4166743,18.209679 50.4175166,18.4991696 L50.4413098,25.0335068 C50.4427837,25.3221485 50.5575387,25.5989049 50.7609392,25.8024397 C50.9634975,26.0053377 51.2372249,26.118672 51.5223225,26.118672 L51.5265337,26.118672 L59.4307281,26.0889589 C57.5954911,28.2162053 54.8916961,29.486653 52.0009243,29.4972648 L51.9621813,29.4972648 C49.3548226,29.4972648 46.9015935,28.4978431 45.0516174,26.681311 C43.1980618,24.8603219 42.1711629,22.4359444 42.1621089,19.8538752 C42.1528443,17.2728672 43.1605822,14.8404247 45.0015042,13.0054279 C46.8474797,11.1655498 49.3076573,10.1474513 51.9305974,10.1376884 L51.9676559,10.1376884 C54.9253857,10.1376884 57.694033,11.4372125 59.5663284,13.7055961 C59.7720451,13.9545496 60.0767247,14.0984459 60.3976174,14.0984459 L60.4018286,14.0984459 L69.6218096,14.0636391 C69.9793397,14.0623657 70.3137082,13.8828136 70.5135292,13.5835602 C70.7141924,13.2849434 70.7541988,12.9054646 70.6211251,12.5699187 C68.5666957,7.38243425 64.3211838,3.25761796 59.1014129,1.27893712 C58.8697975,0.540354117 58.1915852,0 57.3834577,0 C56.3858266,0 55.5734879,0.818596162 55.5734879,1.82502162 C55.5734879,2.83102261 56.3858266,3.64940653 57.3834577,3.64940653 C57.757622,3.64940653 58.106098,3.53437435 58.3949857,3.33741889 C62.5160569,4.9134871 65.9504935,7.98858168 67.9415445,11.8911863 L60.8882212,11.9172914 C58.6044924,9.3821265 55.3618756,7.93955505 51.9219645,7.95865633 C48.7298819,7.96990486 45.7321458,9.21276178 43.4816855,11.4563138 C41.2246978,13.7055961 39.9882922,16.6911269 40,19.8623646 C40.012296,23.0338146 41.2697576,26.0095825 43.5429583,28.2416737 C45.7988932,30.4576349 48.7875752,31.6762969 51.9621813,31.6762969" id="Fill-8" fill="#153557"></path>
                <path d="M75,38.1715112 C75,39.1795624 75.8972137,40 77.0001163,40 C78.1027863,40 79,39.1795624 79,38.1715112 C79,37.6027142 78.7089175,37.100284 78.2624047,36.7644087 L78.1267524,3.33790668 C78.653307,3.00820012 79,2.45535667 79,1.82912692 C79,0.820224839 78.1027863,0 77.0001163,0 C75.8972137,0 75,0.820224839 75,1.82912692 C75,2.39728577 75.2910825,2.89950331 75.7373626,3.23516586 L75.8730149,36.662306 C75.346693,36.9920126 75,37.5450688 75,38.1715112" id="Fill-10" fill="#153557"></path>
                <path d="M85.8667233,0 C84.8375933,0 84,0.81971394 84,1.82751365 C84,2.83488832 84.8375933,3.65438973 85.8667233,3.65438973 C86.4775996,3.65438973 87.016161,3.36152849 87.3568879,2.91586084 L102.742154,2.86017895 L102.766041,9.27911079 L85.8953886,9.34010584 C85.279952,9.3422311 84.7826513,9.83252928 84.7848229,10.4354664 L84.8043675,15.7052685 C84.805019,15.9943043 84.9240237,16.2712261 85.1340192,16.4752513 C85.3429289,16.6782139 85.6254565,16.7919155 85.9192764,16.7919155 L85.9236197,16.7919155 L97.6718587,16.7491977 L97.6959636,23.1681296 L85.9475075,23.2108473 C85.6521674,23.212335 85.3689883,23.3281619 85.1607301,23.5332497 C84.9524719,23.7385501 84.8356388,24.016322 84.8371589,24.3062079 L84.8845002,36.7098803 C84.4262887,37.0433341 84.1248681,37.5725246 84.1248681,38.1731239 C84.1248681,39.1802861 84.9624613,40 85.9915913,40 C87.0207214,40 87.8583146,39.1802861 87.8583146,38.1731239 C87.8583146,37.579538 87.5631917,37.0565107 87.1141009,36.7224194 L87.0711029,25.3886043 L98.8193419,25.3458866 C99.4347786,25.3437613 99.9320792,24.8536756 99.9299076,24.2507385 L99.8971162,15.6497992 C99.8958132,15.3607634 99.77746,15.0836291 99.5676816,14.8798164 C99.3585548,14.6766412 99.0762444,14.5629397 98.7824244,14.5629397 L98.777864,14.5629397 L87.029625,14.6056575 L87.0187669,11.5180754 L103.889637,11.4568678 C104.185194,11.4553801 104.468156,11.3397658 104.676414,11.1344654 C104.884672,10.929165 105.001505,10.6513931 105,10.3617198 L104.967411,1.7607804 C104.965239,1.15975602 104.466636,0.673920898 103.852502,0.673920898 L103.848376,0.673920898 L87.352979,0.733853314 C87.0120349,0.290948505 86.4756451,0 85.8667233,0" id="Fill-12" fill="#153557"></path>
                <path d="M22.9774183,47.9312934 L22.7590229,47.9385257 C22.9203811,47.9800049 23.0811032,48.0236112 23.2409771,48.0687066 L22.9774183,47.9312934 Z" id="Fill-14" fill="#619ECE"></path>
                <path d="M30.6862879,52.4102497 L30,52 C30.3424595,52.3227332 30.6769336,52.6546649 31,53 L30.6862879,52.4102497 Z" id="Fill-16" fill="#619ECE"></path>
                <path d="M37.2010086,62.4992738 L36.7989914,62 C36.9170946,62.3285461 37.0142063,62.6629014 37.1000802,63 L37.2010086,62.4992738 Z" id="Fill-18" fill="#619ECE"></path>
                <path d="M36.3645957,61.7324312 C35.4404072,58.3745618 33.5496363,55.3814221 30.9917964,53.0260336 C30.6916471,52.7496467 30.3808993,52.4837768 30.0629446,52.2256895 C27.9443061,50.5048971 25.4407304,49.1951093 22.6897859,48.427999 C22.5299607,48.3834069 22.3694995,48.3402871 22.2079785,48.2994812 C20.5512223,47.880063 18.8120098,47.652475 17.0170493,47.652475 L16.9377726,47.652475 L13.1990487,47.6661471 C12.8675279,47.2631355 12.3696107,47 11.805983,47 C10.8629292,47 10.0877555,47.7212562 10.0078429,48.637077 C10.0033915,48.6886104 10,48.7401437 10,48.7927287 C10,49.7806962 10.8101487,50.5848264 11.805983,50.5848264 C12.4223912,50.5848264 12.9665178,50.2756264 13.2925274,49.8063577 L16.9462514,49.7928959 L17.0170493,49.7928959 C26.8183223,49.7928959 34.8085251,57.2202153 34.8428643,66.3794751 C34.8596099,70.8155479 33.0288264,74.9960575 29.6856383,78.1515797 C26.3261284,81.3226671 21.846358,83.079007 17.0717375,83.0964652 C17.0003037,83.0964652 16.9295058,83.1040375 16.8597677,83.1187613 L13.2410187,83.132223 C12.9109817,82.6995534 12.3933514,82.415384 11.805983,82.415384 C10.8101487,82.415384 10,83.2195142 10,84.2081127 C10,84.3555611 10.0201371,84.498382 10.0540523,84.6357341 C10.2482167,85.4175683 10.9589515,86 11.805983,86 C12.3984386,86 12.9205203,85.7114134 13.2501334,85.2726439 L17.0789445,85.2583408 C17.1510142,85.2583408 17.2220241,85.2501375 17.2917622,85.2347827 C22.5401352,85.1643188 27.4627106,83.2043697 31.1721827,79.7017863 C34.949697,76.1367319 37.0189465,71.4023968 37,66.3710615 C36.9958418,65.2322802 36.8771387,64.11895 36.6655928,63.0361192 C36.5797451,62.5965084 36.4826629,62.1606837 36.3645957,61.7324312" id="Fill-20" fill="#619ECE"></path>
                <path d="M4.21720917,82.7744345 L4.08723464,50.2169415 C4.55256156,49.889442 4.85825078,49.3757915 4.85825078,48.7927287 C4.85825078,48.740354 4.8546278,48.6886104 4.84987263,48.637077 C4.76450609,47.7212562 3.93642796,47 2.92946504,47 C1.86566657,47 1,47.8041302 1,48.7927287 C1,49.3806293 1.31067082,49.898697 1.78301727,50.2257758 L1.91299179,82.7832688 C1.44766487,83.1109787 1.14174922,83.6246292 1.14174922,84.2081127 C1.14174922,85.1960801 2.00718936,86 3.07098783,86 C3.97560147,86 4.73484291,85.4175683 4.94203227,84.6359444 C4.97848854,84.498382 5,84.3557714 5,84.2081127 C5,83.6200017 4.68932918,83.1015134 4.21720917,82.7744345" id="Fill-22" fill="#619ECE"></path>
                <path d="M18.4306056,58.2062586 L18.4577917,58.2062586 C20.4139388,58.2062586 22.2594593,59.0500831 23.6557811,60.5842307 C25.0765705,62.1448291 25.8635046,64.2294573 25.8719335,66.4537111 C25.8800254,68.6779649 25.10773,70.7677965 23.6980242,72.3398858 C22.3056757,73.8918118 20.4561819,74.750813 18.4895786,74.7579678 C18.4389705,74.7579678 18.389199,74.762304 18.3398457,74.7701091 L13.1910004,74.789622 L13.1320274,58.2264219 L18.4306056,58.2062586 Z M12.1311593,77 L12.1353418,77 L18.4979435,76.9757173 C18.5533614,76.9757173 18.608152,76.9707306 18.6614786,76.9620582 C21.1607211,76.9067717 23.4972651,75.8027752 25.255999,73.8421623 C27.0354363,71.8587844 28.010373,69.2316976 28,66.4450387 C27.9894606,63.6585965 26.9967483,61.0395317 25.2032997,59.0693792 C23.4002315,57.0894703 21.0059693,56 18.4584191,56 L18.4230771,56 L12.059848,56.0244995 C11.4724183,56.0266676 10.9979156,56.5229457 11,57.131965 L11.0671357,75.9012069 C11.069227,76.5089253 11.5449844,77 12.1311593,77 L12.1311593,77 Z" id="Fill-24" fill="#619ECE"></path>
                <path d="M128.077149,76.1521225 C129.087768,77.2632645 130.798794,78 132.659228,78 L132.686239,78 C135.688975,77.988558 138.218371,76.088556 138.210141,73.8524993 C138.206343,72.7074552 137.536958,71.602246 136.373976,70.821014 C135.339932,70.12708 134.030074,69.7450455 132.680753,69.7450455 C132.653741,69.7444098 132.627573,69.7450455 132.601406,69.7450455 C129.311248,69.7450455 126.219036,68.6241566 123.888429,66.5838846 C121.587999,64.5709461 120.315493,61.9039087 120.305152,59.0758361 C120.283205,53.1677559 125.788326,48.3400939 132.576504,48.3144554 L132.628206,48.3144554 C138.733494,48.3144554 143.891893,52.3013448 144.779271,57.4468392 C144.389922,57.8017521 144.140486,58.3088006 144.140486,58.8770849 C144.140486,59.0766837 144.170874,59.2690782 144.226586,59.4502427 C144.470747,60.2397383 145.204917,60.8150149 146.070348,60.8150149 C147.134358,60.8150149 148,59.9454255 148,58.8770849 C148,58.1823034 147.631121,57.5765148 147.082656,57.2343153 C146.092717,50.9139005 139.926231,46 132.628206,46 L132.56743,46 C124.509277,46.0303 117.973701,51.8998166 118,59.0847354 C118.012952,62.5880959 119.565917,65.8713044 122.373872,68.3287844 C125.124428,70.7358349 128.753709,72.0595009 132.600772,72.0595009 L132.663659,72.0595009 C133.549982,72.0264463 134.438837,72.3059269 135.092395,72.7449594 C135.600342,73.0856757 135.903591,73.5030956 135.905069,73.8609748 C135.908023,74.5909299 134.553637,75.6781285 132.677165,75.6855446 L132.659228,75.6855446 C131.589731,75.6855446 130.634824,75.3204611 130.046685,74.8494335 C130.112948,74.6536488 130.157054,74.4476934 130.157054,74.2296604 C130.157054,73.1604722 129.2912,72.2910947 128.227191,72.2910947 C127.4295,72.2910947 126.743022,72.7799209 126.44948,73.4753382 C126.351563,73.7073558 126.297328,73.9622574 126.297328,74.2296604 C126.297328,75.2463002 127.084256,76.073512 128.077149,76.1521225" id="Fill-26" fill="#619ECE"></path>
                <g id="Group-30" transform="translate(117.000000, 55.000000)">
                    <mask id="mask-4" fill="white">
                        <use xlink:href="#path-3"></use>
                    </mask>
                    <g id="Clip-29"></g>
                    <path d="M19.5656643,5.8588 C20.3425175,5.8588 21.0117483,5.39206316 21.313007,4.72406316 C21.4220979,4.48258947 21.4841958,4.21543158 21.4841958,3.93353684 C21.4841958,2.95627368 20.7528671,2.15585263 19.8125874,2.03269474 C18.8093706,0.933326316 17.1165734,0.205747368 15.2639161,0.205747368 L15.2370629,0.205747368 C12.2534266,0.216905263 9.73804196,2.10406316 9.74559441,4.32722105 C9.75356643,6.54301053 12.2683217,8.40743158 15.2423077,8.40743158 L15.2676923,8.40743158 C18.5347552,8.37753684 21.6543357,9.51016842 23.983007,11.5476421 C26.2699301,13.5484842 27.534965,16.1977474 27.5454545,19.0084842 C27.5559441,21.8183789 26.3102098,24.4771158 24.0381818,26.4952211 C21.7244056,28.5499579 18.6369231,29.6884842 15.3461538,29.7004842 L15.2945455,29.7004842 C9.29937063,29.7004842 4.21909091,25.8261684 3.25111888,20.8000632 C3.61888112,20.4489053 3.85132867,19.9566947 3.85132867,19.4084842 C3.85132867,19.1428 3.79741259,18.8895368 3.70006993,18.6590105 C3.40825175,17.9680632 2.7258042,17.4823789 1.93258741,17.4823789 C0.875034965,17.4823789 0.0142657343,18.3461684 0.0142657343,19.4084842 C0.0142657343,20.1164842 0.401538462,20.7297474 0.97048951,21.0640632 C2.06622378,27.2312211 8.13356643,32.0000632 15.2945455,32.0000632 L15.354965,32.0000632 C19.2025175,31.9857474 22.826014,30.6421684 25.5570629,28.2166947 C28.3300699,25.7550105 29.8502098,22.4806947 29.8370785,18.9992211 C29.8241958,15.5179579 28.2801399,12.2556421 25.4888811,9.81395789 C22.7544755,7.42237895 19.1465035,6.10806316 15.322028,6.10806316 L15.2423077,6.10806316 C13.3856643,6.10806316 12.0400699,5.04132632 12.0369231,4.31901053 C12.0348252,3.59353684 13.3812587,2.51269474 15.2458741,2.50532632 L15.2639161,2.50532632 C16.2786713,2.50532632 17.1843357,2.83248421 17.773007,3.26616842 C17.6955944,3.4748 17.6471329,3.69795789 17.6471329,3.93353684 C17.6471329,4.99501053 18.5081119,5.8588 19.5656643,5.8588" id="Fill-28" fill="#619ECE" mask="url(#mask-4)"></path>
                </g>
                <path d="M44.2173864,82.7167662 L44.0863094,49.2744556 C44.5517573,48.9408868 44.8573773,48.418053 44.8573773,47.82478 C44.8573773,47.7384974 44.8487747,47.6543559 44.8365499,47.5714989 C44.7054729,46.684908 43.9011263,46 42.9288019,46 C41.8652442,46 41,46.8182928 41,47.82478 C41,48.4229773 41.3103741,48.9503072 41.7823872,49.2832338 L41.9136906,82.7257585 C41.4484691,83.0591132 41.1426227,83.5821611 41.1426227,84.1758623 C41.1426227,85.1817072 42.0078669,86 43.0711981,86 C44.1345294,86 45,85.1817072 45,84.1758623 C45,84.1499561 44.9961515,84.1249063 44.9950195,84.0990001 C44.969438,83.5324898 44.6690248,83.0351339 44.2173864,82.7167662" id="Fill-31" fill="#619ECE"></path>
                <path d="M69.6424025,74.7276619 C69.4350347,74.5241306 69.1726863,74.3916533 68.862284,74.411343 L52.1951523,74.4723381 L52.1838964,71.3615837 L63.7902151,71.3192081 C64.3980322,71.3168539 64.8891778,70.8278224 64.8870132,70.2260032 L64.8549773,61.6316747 C64.8534621,61.3431782 64.7365742,61.0666667 64.5294229,60.8631354 C64.3220551,60.6598181 64.0653346,60.5421081 63.7490879,60.5470305 L52.1429857,60.5896201 L52.1321627,57.5015516 L68.799078,57.4405564 C69.4071115,57.4384163 69.8982571,56.9493847 69.8960925,56.3473515 L69.8638401,47.753023 C69.8625414,47.4645265 69.7456535,47.188229 69.5385021,46.9846977 C69.330485,46.7805243 69.02636,46.6925629 68.7583837,46.6683788 L52.3094427,46.728946 C51.9724159,46.2889246 51.4438229,46 50.8440148,46 C49.9035001,46 49.1261956,46.7006956 49.0149357,47.6021402 C49.0060609,47.6749064 49,47.7487426 49,47.823863 C49,48.8293205 49.827523,49.647298 50.8440148,49.647298 C51.4494508,49.647298 51.9830224,49.353451 52.3193998,48.9065811 L67.6654818,48.8505083 L67.6892923,55.2669877 L51.0223771,55.3279829 C50.4143435,55.3301231 49.9229815,55.8191546 49.9253625,56.4211878 L49.9446274,61.6868914 C49.9454932,61.9756019 50.0630305,62.2518994 50.2701818,62.4554307 C50.4766838,62.6581059 50.755483,62.7715356 51.0459711,62.7715356 L51.0503003,62.7715356 L62.656619,62.72916 L62.6802131,69.1454254 L51.0738943,69.188229 C50.7821075,69.1895131 50.5024424,69.3050829 50.2968063,69.5098983 C50.0909537,69.7149278 49.975581,69.9920813 49.9768798,70.2812199 L49.9970105,75.5698234 C49.9991751,76.1695024 50.4918359,76.6544676 51.0983542,76.6544676 L51.1026834,76.6544676 L67.7695986,76.5934724 L67.7931927,83.0099518 L52.4289281,83.0664526 C52.0910355,82.63542 51.5687198,82.352488 50.9760548,82.352488 C49.9801267,82.352488 49.1679722,83.1381487 49.1350705,84.1155698 C49.1344211,84.1361156 49.1318236,84.1560193 49.1318236,84.176565 C49.1318236,85.1820225 49.9593466,86 50.9760548,86 C51.588634,86 52.1286994,85.6999465 52.4642109,85.2440877 L68.9031948,85.1835206 C69.5112283,85.1813804 70.0021575,84.6923488 70,84.0903157 L69.9679569,75.4962012 C69.9664417,75.2074906 69.8495538,74.9311932 69.6424025,74.7276619" id="Fill-33" fill="#619ECE"></path>
                <path d="M90.6436126,82.4204618 L77.2659338,48.8095523 C77.4485806,48.5237953 77.5567075,48.1842588 77.5567075,47.8182594 C77.5567075,47.7612788 77.5533677,47.7053651 77.5483579,47.6496649 C77.4646535,46.7260233 76.7031728,46 75.7782494,46 C74.79801,46 74,46.8158692 74,47.8182594 C74,48.6383969 74.537086,49.325366 75.2676733,49.551368 L88.6900223,83.2736779 C88.5370164,83.5417218 88.4432925,83.8492467 88.4432925,84.1811003 C88.4432925,85.1843442 89.2410938,86 90.2217506,86 C91.2021987,86 92,85.1843442 92,84.1811003 C92,84.1396987 91.9924854,84.1004311 91.9897718,84.0594562 C91.936752,83.2619403 91.3823407,82.6059157 90.6436126,82.4204618" id="Fill-35" fill="#619ECE"></path>
                <path d="M114.186698,46 C113.240674,46 112.462146,46.7309697 112.381697,47.6586568 C112.377014,47.7113566 112.373396,47.7640564 112.373396,47.817823 C112.373396,48.1660257 112.476618,48.4888386 112.646669,48.7655659 L99.3103872,82.4439371 C98.5940053,82.6530294 98.0623589,83.2890541 98.0102158,84.059922 C98.007449,84.1006737 98,84.1401452 98,84.1815369 C98,85.18454 98.8136447,86 99.8133018,86 C100.812746,86 101.626391,85.18454 101.626391,84.1815369 C101.626391,83.8226662 101.518699,83.4896121 101.338859,83.2075508 L114.660881,49.565024 C115.429832,49.3544381 116,48.6550457 116,47.817823 C116,46.8156734 115.186355,46 114.186698,46" id="Fill-37" fill="#619ECE"></path>
                <path d="M86.3226942,49.588291 L94.5880824,72.2811394 C94.7453874,72.7127134 95.1556267,73 95.6152925,73 L95.6195905,73 C96.0807605,72.9987117 96.490785,72.707775 96.6452963,72.2740539 L104.727807,49.5629548 C105.462971,49.3254817 106,48.642693 106,47.8293585 C106,47.7752507 105.996562,47.7222165 105.992049,47.669397 C105.910388,46.7356082 105.124508,46 104.169288,46 C103.159914,46 102.338361,46.8208495 102.338361,47.8293585 C102.338361,48.211119 102.456555,48.5653961 102.657484,48.8591241 L95.6032583,68.6801804 L88.3698079,48.8219787 C88.5524708,48.5374834 88.6616387,48.2014569 88.6616387,47.8390206 C88.6616387,46.8305116 87.8400855,46.0096621 86.8307119,46.0096621 C85.8787159,46.0096621 85.0945549,46.7401172 85.0085959,47.669397 C85.0032235,47.7252225 85,47.7816921 85,47.8390206 C85,48.6708204 85.5613123,49.366492 86.3226942,49.588291" id="Fill-39" fill="#619ECE"></path>
            </g>
        </g>
    </g>
</svg>